<svg xmlns="http://www.w3.org/2000/svg" width="44" height="44" viewBox="0 0 44 44">
    <g fill="none">
        <path fill="#49CB8B" d="M41.8 27.719l-3.33-2.554c-.212 1.6-1.558 2.835-3.178 2.835H25.208C23.44 28 22 26.528 22 24.719v-8.906c0-1.298.84-2.813 3.208-2.813h10.084c1.708 0 3.109 1.373 3.203 3.096l3.25-2.77c.407-.35.979-.425 1.463-.192.484.23.792.727.792 1.273v12.187c0 .532-.295 1.02-.76 1.258-.195.1-.406.148-.615.148-.291 0-.583-.096-.825-.281z"/>
        <path fill="#13B766" d="M44 21H22v3.938C22 26.625 23.44 28 25.208 28h10.084c1.62 0 2.966-1.153 3.179-2.646l3.329 2.384c.242.175.534.262.825.262.209 0 .422-.044.614-.138.466-.222.761-.677.761-1.174V21z"/>
        <path fill="#607D8B" d="M25.375 10.083V5.5c0-1.008-.816-1.833-1.813-1.833h-.906c-.997 0-1.812.825-1.812 1.833s-.816 1.833-1.813 1.833H9.97c-.997 0-1.813-.825-1.813-1.833s-.815-1.833-1.812-1.833h-.907c-.996 0-1.812.825-1.812 1.833v33c0 1.008.816 1.833 1.813 1.833h18.125c.996 0 1.812-.825 1.812-1.833v-8.25H29v8.25c0 3.025-2.447 5.5-5.438 5.5H5.438C2.447 44 0 41.525 0 38.5v-33C0 2.475 2.447 0 5.438 0h18.125C26.553 0 29 2.475 29 5.5v4.583h-3.625z"/>
        <path fill="#FAFAFA" d="M19.583 16.025v8.788c0 3.311 2.677 6.012 5.959 6.012H26v8.325c0 1.017-.825 1.85-1.833 1.85H5.833C4.825 41 4 40.167 4 39.15V5.85C4 4.832 4.825 4 5.833 4h.917c1.008 0 1.833.832 1.833 1.85 0 1.018.825 1.85 1.834 1.85h9.166c1.009 0 1.834-.833 1.834-1.85 0-1.018.825-1.85 1.833-1.85h.917C25.175 4 26 4.832 26 5.85v4.625h-.458c-3.905 0-5.959 2.793-5.959 5.55z"/>
        <path fill="#2196F3" d="M14.5 33c1.93 0 3.5-1.568 3.5-3.5 0-1.93-1.57-3.5-3.5-3.5S11 27.568 11 29.5s1.57 3.5 3.5 3.5zM22 40.5v.5H7v-.5c0-3.04 2.306-5.5 5.156-5.5h4.688C19.694 35 22 37.46 22 40.5z"/>
        <path fill="#546D79" d="M15 0H5.625C2.531 0 0 2.475 0 5.5v33C0 41.525 2.531 44 5.625 44H15v-3.667H5.625c-1.031 0-1.875-.825-1.875-1.833v-33c0-1.008.844-1.833 1.875-1.833h.938c1.03 0 1.875.825 1.875 1.833s.843 1.833 1.874 1.833H15V0z"/>
        <path fill="#DADADA" d="M6.75 4h-.917C4.825 4 4 4.832 4 5.85v33.3C4 40.167 4.825 41 5.833 41H15 7.667v-.462c0-2.813 2.255-5.088 5.041-5.088H15V33c-2.022 0-3.667-1.058-3.667-3.1 0-2.04 1.645-3.7 3.667-3.7V7.7h-4.583c-1.009 0-1.834-.833-1.834-1.85C8.583 4.832 7.758 4 6.75 4z"/>
        <g fill="#1D83D4">
            <path d="M6.946 0C5.03 0 3.473 1.568 3.473 3.5S5.03 7 6.946 7V0zM6.946 8.97h-2.17C2.135 8.97 0 11.43 0 14.47v.5h6.946v-6z" transform="translate(8 26)"/>
        </g>
    </g>
</svg>
